<svg width="80" height="80" viewBox="0 0 80 80" fill="none" xmlns="http://www.w3.org/2000/svg">
<path d="M40 0C32.0888 0 24.3552 2.34596 17.7772 6.74121C11.1992 11.1365 6.07234 17.3836 3.04484 24.6927C0.0173314 32.0017 -0.774802 40.0444 0.768607 47.8036C2.31202 55.5628 6.12164 62.6902 11.7157 68.2843C17.3098 73.8784 24.4372 77.688 32.1964 79.2314C39.9556 80.7748 47.9983 79.9827 55.3073 76.9552C62.6164 73.9277 68.8635 68.8008 73.2588 62.2228C77.654 55.6448 80 47.9112 80 40C79.9878 29.3951 75.7696 19.228 68.2708 11.7292C60.772 4.23041 50.6049 0.0122153 40 0ZM73.8462 40C73.8489 43.1214 73.4178 46.228 72.5654 49.2308H57.7539C58.6977 43.1131 58.6977 36.8869 57.7539 30.7692H72.5654C73.4178 33.772 73.8489 36.8786 73.8462 40ZM30 55.3846H50C48.0298 61.8408 44.6093 67.7609 40 72.6923C35.3929 67.7593 31.9727 61.8397 30 55.3846ZM28.5 49.2308C27.4433 43.1223 27.4433 36.8777 28.5 30.7692H51.5308C52.5875 36.8777 52.5875 43.1223 51.5308 49.2308H28.5ZM6.15386 40C6.15114 36.8786 6.58218 33.772 7.43463 30.7692H22.2462C21.3023 36.8869 21.3023 43.1131 22.2462 49.2308H7.43463C6.58218 46.228 6.15114 43.1214 6.15386 40ZM50 24.6154H30C31.9702 18.1592 35.3907 12.2391 40 7.30769C44.6071 12.2407 48.0273 18.1603 50 24.6154ZM70.1269 24.6154H56.4269C54.7 18.2805 51.7899 12.3296 47.85 7.07692C52.6104 8.22049 57.0673 10.3799 60.9151 13.4071C64.7628 16.4344 67.9105 20.2578 70.1423 24.6154H70.1269ZM32.15 7.07692C28.2102 12.3296 25.3 18.2805 23.5731 24.6154H9.85771C12.0895 20.2578 15.2372 16.4344 19.085 13.4071C22.9327 10.3799 27.3896 8.22049 32.15 7.07692ZM9.85771 55.3846H23.5731C25.3 61.7195 28.2102 67.6704 32.15 72.9231C27.3896 71.7795 22.9327 69.6201 19.085 66.5929C15.2372 63.5656 12.0895 59.7422 9.85771 55.3846ZM47.85 72.9231C51.7899 67.6704 54.7 61.7195 56.4269 55.3846H70.1423C67.9105 59.7422 64.7628 63.5656 60.9151 66.5929C57.0673 69.6201 52.6104 71.7795 47.85 72.9231Z" fill="#00FFFB"/>
</svg>
