<svg width="89" height="89" viewBox="0 0 89 89" fill="none" xmlns="http://www.w3.org/2000/svg">
<path d="M4.5 44.2107H8.94444M44.5 4.21069V8.65514M80.0556 44.2107H84.5M16.0556 15.7662L19.1667 18.8774M72.9444 15.7662L69.8333 18.8774M34.2778 66.4329H54.7222M31.1667 61.9885C27.4354 59.19 24.6793 55.2885 23.2886 50.8366C21.8979 46.3847 21.9432 41.6081 23.4181 37.1834C24.8931 32.7587 27.7228 28.9102 31.5064 26.1831C35.2901 23.456 39.8359 21.9885 44.5 21.9885C49.1641 21.9885 53.7099 23.456 57.4936 26.1831C61.2772 28.9102 64.1069 32.7587 65.5818 37.1834C67.0568 41.6081 67.1021 46.3847 65.7114 50.8366C64.3207 55.2885 61.5646 59.19 57.8333 61.9885C56.0981 63.7062 54.7915 65.8082 54.0194 68.1246C53.2473 70.4409 53.0313 72.9065 53.3889 75.3218C53.3889 77.6793 52.4524 79.9402 50.7854 81.6072C49.1184 83.2742 46.8575 84.2107 44.5 84.2107C42.1425 84.2107 39.8816 83.2742 38.2146 81.6072C36.5476 79.9402 35.6111 77.6793 35.6111 75.3218C35.9687 72.9065 35.7527 70.4409 34.9806 68.1246C34.2085 65.8082 32.9019 63.7062 31.1667 61.9885Z" stroke="#00FFFB" stroke-width="8" stroke-linecap="round" stroke-linejoin="round"/>
</svg>
