<svg width="80" height="81" viewBox="0 0 80 81" fill="none" xmlns="http://www.w3.org/2000/svg">
<path d="M40 0.5C41.5013 0.5 42.9813 0.581334 44.44 0.744C44.9621 0.801782 45.4678 0.96184 45.9281 1.21504C46.3883 1.46823 46.7942 1.80961 47.1226 2.21967C47.4509 2.62973 47.6953 3.10046 47.8417 3.60496C47.9882 4.10946 48.0338 4.63786 47.976 5.16C47.9182 5.68214 47.7582 6.18778 47.505 6.64806C47.2518 7.10834 46.9104 7.51424 46.5003 7.84258C46.0903 8.17093 45.6195 8.4153 45.115 8.56173C44.6105 8.70816 44.0821 8.75378 43.56 8.696C36.9682 7.95858 30.3101 9.28776 24.5067 12.4997C18.7033 15.7116 14.0414 20.6476 11.1659 26.6248C8.29031 32.602 7.34321 39.3251 8.45557 45.8641C9.56792 52.4031 12.6848 58.4348 17.375 63.125C22.0652 67.8152 28.0969 70.9321 34.6359 72.0444C41.1749 73.1568 47.898 72.2097 53.8752 69.3341C59.8524 66.4586 64.7884 61.7967 68.0003 55.9933C71.2122 50.1899 72.5414 43.5318 71.804 36.94C71.7462 36.4179 71.7918 35.8895 71.9383 35.385C72.0847 34.8805 72.3291 34.4097 72.6574 33.9997C73.3205 33.1715 74.2855 32.6407 75.34 32.524C76.3945 32.4073 77.4522 32.7143 78.2803 33.3774C78.6904 33.7058 79.0318 34.1117 79.285 34.5719C79.5382 35.0322 79.6982 35.5379 79.756 36.06C79.916 37.5187 79.9973 38.9987 80 40.5C80 62.592 62.092 80.5 40 80.5C17.908 80.5 0 62.592 0 40.5C0 18.408 17.908 0.5 40 0.5ZM39.872 24.008C40.1356 25.0349 39.9808 26.1244 39.4415 27.0372C38.9022 27.95 38.0226 28.6114 36.996 28.876C34.1755 29.6149 31.7201 31.3547 30.0882 33.7708C28.4562 36.187 27.759 39.1144 28.1268 42.0068C28.4946 44.8992 29.9022 47.559 32.0869 49.4898C34.2717 51.4206 37.0843 52.4906 40 52.5C42.6612 52.5011 45.2473 51.6176 47.3515 49.9884C49.4557 48.3592 50.9587 46.0767 51.624 43.5C51.9075 42.4934 52.574 41.6379 53.4806 41.1167C54.3872 40.5955 55.4619 40.4501 56.4744 40.7116C57.4869 40.9731 58.3568 41.6207 58.8977 42.5157C59.4385 43.4108 59.6073 44.482 59.368 45.5C58.1409 50.2037 55.2434 54.2998 51.2166 57.0231C47.1899 59.7464 42.3094 60.9105 37.487 60.298C32.6646 59.6855 28.2301 57.3383 25.012 53.6949C21.7939 50.0515 20.0123 45.3611 20 40.5C19.9993 36.0656 21.4724 31.7566 24.1877 28.2507C26.9029 24.7447 30.7064 22.2406 35 21.132C35.5087 21.0009 36.0383 20.9713 36.5585 21.0448C37.0787 21.1184 37.5793 21.2937 38.0317 21.5608C38.4842 21.8279 38.8795 22.1815 39.1953 22.6013C39.5111 23.0212 39.741 23.4992 39.872 24.008ZM66.016 1.008C66.7461 1.31072 67.3702 1.82295 67.8094 2.48004C68.2487 3.13713 68.4834 3.90962 68.484 4.7V12.02H75.8C76.591 12.0202 77.3642 12.2549 78.0218 12.6944C78.6795 13.1339 79.192 13.7586 79.4947 14.4894C79.7974 15.2202 79.8766 16.0243 79.7223 16.8001C79.5681 17.5759 79.1872 18.2886 78.628 18.848L64.48 32.98C63.73 33.7302 62.7128 34.1518 61.652 34.152H52L44.688 41.468C43.9374 42.2186 42.9195 42.6402 41.858 42.6402C40.7965 42.6402 39.7786 42.2186 39.028 41.468C38.2774 40.7174 37.8558 39.6995 37.8558 38.638C37.8558 37.5765 38.2774 36.5586 39.028 35.808L46.344 28.5V18.844C46.3442 17.7832 46.7658 16.766 47.516 16.016L61.656 1.872C62.2154 1.31227 62.9282 0.931033 63.7043 0.776526C64.4804 0.622018 65.2849 0.701181 66.016 1.004M60.484 14.352L54.344 20.5V26.156H60L66.144 20.016H64.484C63.4231 20.016 62.4057 19.5946 61.6556 18.8444C60.9054 18.0943 60.484 17.0769 60.484 16.016V14.352Z" fill="white"/>
</svg>
