<svg width="158" height="22" viewBox="0 0 158 22" fill="none" xmlns="http://www.w3.org/2000/svg">
<path d="M0.0600002 0.4H11.132C15.996 0.4 18.076 3.408 18.076 6.864C18.076 10.128 16.188 13.648 11.132 13.648H4.412C4.06 13.648 3.868 13.808 3.868 14.192V22H0.092V13.456C0.092 11.024 1.116 10.032 3.484 10.032H11.26C13.404 10.032 14.268 8.56 14.268 7.056C14.268 5.488 13.34 4.176 11.292 4.176H0.0600002V0.4ZM28.2748 0.4H39.0908V4.176H28.2748C26.0028 4.176 25.0108 5.232 25.0108 6.896C25.0108 8.656 26.1308 9.456 28.3068 9.456H38.9308V12.88H28.2108C26.0348 12.88 24.9148 13.744 24.9148 15.504C24.9148 17.2 25.9708 18.224 28.1788 18.224H39.1228V22H28.1788C23.0588 22 20.9788 19.472 20.9788 16.112C20.9788 13.648 22.0988 11.984 24.0828 11.152C22.0668 10.32 21.0428 8.656 21.0428 6.288C21.0428 2.832 23.1868 0.4 28.2748 0.4ZM43.9663 0.4H55.6783C60.5423 0.4 62.6223 3.408 62.6223 6.864C62.6223 9.552 61.3423 12.432 58.0463 13.36L63.0703 22H58.8783L53.9503 13.648H48.3183C47.9663 13.648 47.7743 13.808 47.7743 14.192V22H43.9983V13.456C43.9983 11.024 45.0223 10.032 47.3903 10.032H55.8063C57.9503 10.032 58.8143 8.56 58.8143 7.024C58.8143 5.488 57.8863 4.176 55.8063 4.176H43.9663V0.4ZM72.602 0.4H83.546V4.176H72.474C70.522 4.176 69.658 5.232 69.658 6.736C69.658 8.048 70.33 9.296 72.858 9.296H77.914C83.802 9.296 85.178 12.56 85.178 15.664C85.178 19.312 83.226 22 78.298 22H66.266V18.224H78.426C80.474 18.224 81.402 17.104 81.402 15.536C81.402 14.128 80.666 12.848 78.01 12.848H72.986C67.226 12.848 65.882 9.616 65.882 6.608C65.882 3.024 67.802 0.4 72.602 0.4ZM89.374 0.4H93.15V22H89.374V0.4ZM104.102 0.4H115.046V4.176H103.974C102.022 4.176 101.158 5.232 101.158 6.736C101.158 8.048 101.83 9.296 104.358 9.296H109.414C115.302 9.296 116.678 12.56 116.678 15.664C116.678 19.312 114.726 22 109.798 22H97.766V18.224H109.926C111.974 18.224 112.902 17.104 112.902 15.536C112.902 14.128 112.166 12.848 109.51 12.848H104.486C98.726 12.848 97.382 9.616 97.382 6.608C97.382 3.024 99.302 0.4 104.102 0.4ZM126.602 0.4H137.546V4.176H126.474C124.522 4.176 123.658 5.232 123.658 6.736C123.658 8.048 124.33 9.296 126.858 9.296H131.914C137.802 9.296 139.178 12.56 139.178 15.664C139.178 19.312 137.226 22 132.298 22H120.266V18.224H132.426C134.474 18.224 135.402 17.104 135.402 15.536C135.402 14.128 134.666 12.848 132.01 12.848H126.986C121.226 12.848 119.882 9.616 119.882 6.608C119.882 3.024 121.802 0.4 126.602 0.4ZM140.741 0.4H157.157V4.176H150.853V22H147.045V4.176H140.741V0.4Z" fill="white"/>
</svg>
