<svg width="88" height="88" viewBox="0 0 88 88" fill="none" xmlns="http://www.w3.org/2000/svg">
<path d="M4 44H8.44444M44 4V8.44444M79.5556 44H84M15.5556 15.5556L18.6667 18.6667M72.4444 15.5556L69.3333 18.6667M33.7778 66.2222H54.2222M30.6667 61.7778C26.9354 58.9793 24.1793 55.0779 22.7886 50.6259C21.3979 46.174 21.4432 41.3974 22.9181 36.9727C24.3931 32.548 27.2228 28.6995 31.0064 25.9724C34.7901 23.2453 39.3359 21.7778 44 21.7778C48.6641 21.7778 53.2099 23.2453 56.9936 25.9724C60.7772 28.6995 63.6069 32.548 65.0818 36.9727C66.5568 41.3974 66.6021 46.174 65.2114 50.6259C63.8207 55.0779 61.0646 58.9793 57.3333 61.7778C55.5981 63.4955 54.2915 65.5975 53.5194 67.9139C52.7473 70.2302 52.5313 72.6958 52.8889 75.1111C52.8889 77.4686 51.9524 79.7295 50.2854 81.3965C48.6184 83.0635 46.3575 84 44 84C41.6425 84 39.3816 83.0635 37.7146 81.3965C36.0476 79.7295 35.1111 77.4686 35.1111 75.1111C35.4687 72.6958 35.2527 70.2302 34.4806 67.9139C33.7085 65.5975 32.4019 63.4955 30.6667 61.7778Z" stroke="#9961D9" stroke-width="8" stroke-linecap="round" stroke-linejoin="round"/>
</svg>
