<svg width="36" height="51" viewBox="0 0 36 51" fill="none" xmlns="http://www.w3.org/2000/svg">
<path d="M35.4369 13.4996L22.9369 0.999581C22.5797 0.642439 22.2226 0.463867 21.6869 0.463867H3.82973C1.86544 0.463867 0.258301 2.07101 0.258301 4.0353V46.8924C0.258301 48.8567 1.86544 50.4639 3.82973 50.4639H32.4012C34.3654 50.4639 35.9726 48.8567 35.9726 46.8924V14.7496C35.9726 14.2139 35.794 13.8567 35.4369 13.4996ZM21.6869 4.74958L31.6869 14.7496H21.6869V4.74958ZM32.4012 46.8924H3.82973V4.0353H18.1154V14.7496C18.1154 16.7139 19.7226 18.321 21.6869 18.321H32.4012V46.8924Z" fill="#9961D9"/>
<path d="M7.40137 36.1782H28.8299V39.7496H7.40137V36.1782ZM7.40137 25.4639H28.8299V29.0353H7.40137V25.4639Z" fill="#9961D9"/>
</svg>
