<svg width="44" height="42" viewBox="0 0 44 42" fill="none" xmlns="http://www.w3.org/2000/svg">
<path d="M8.93526 24.9157H15.5764L26.4635 14.8351C26.7901 14.5327 27.0354 14.1879 27.1995 13.8008C27.3635 13.4137 27.4448 13.036 27.4433 12.6677C27.4419 12.2995 27.3511 11.9386 27.1711 11.5851C26.9911 11.2316 26.7553 10.9036 26.4635 10.6012L24.5038 8.68588C24.1772 8.38346 23.8143 8.15698 23.4151 8.00644C23.0159 7.8559 22.5986 7.77996 22.1631 7.77862C21.7639 7.77862 21.356 7.85456 20.9394 8.00644C20.5228 8.15832 20.1504 8.3848 19.8224 8.68588L8.93526 18.7665V24.9157ZM12.2014 21.8915V19.9762L17.6994 14.8855L18.7881 15.7927L19.7679 16.8008L14.2699 21.8915H12.2014ZM18.7881 15.7927L19.7679 16.8008L17.6994 14.8855L18.7881 15.7927ZM20.2034 24.9157H35.0643V20.8835H24.5582L20.2034 24.9157ZM0.225586 41.0448V4.75443C0.225586 3.64556 0.65236 2.69663 1.50591 1.90765C2.35946 1.11867 3.3843 0.723512 4.58042 0.722168H39.4191C40.6167 0.722168 41.6423 1.11733 42.4958 1.90765C43.3494 2.69797 43.7754 3.6469 43.774 4.75443V28.948C43.774 30.0568 43.3479 31.0064 42.4958 31.7968C41.6437 32.5871 40.6182 32.9816 39.4191 32.9802H8.93526L0.225586 41.0448ZM7.08446 28.948H39.4191V4.75443H4.58042V31.2161L7.08446 28.948Z" fill="#9961D9"/>
</svg>
