<svg width="81" height="81" viewBox="0 0 81 81" fill="none" xmlns="http://www.w3.org/2000/svg">
<path d="M40.5 0.289307C42.0013 0.289307 43.4813 0.37064 44.94 0.533307C45.4621 0.591089 45.9678 0.751146 46.4281 1.00434C46.8883 1.25754 47.2942 1.59891 47.6226 2.00898C47.9509 2.41904 48.1953 2.88976 48.3417 3.39426C48.4882 3.89877 48.5338 4.42717 48.476 4.94931C48.4182 5.47144 48.2582 5.97708 48.005 6.43736C47.7518 6.89764 47.4104 7.30354 47.0003 7.63189C46.5903 7.96024 46.1195 8.2046 45.615 8.35103C45.1105 8.49746 44.5821 8.54309 44.06 8.48531C37.4682 7.74788 30.8101 9.07707 25.0067 12.289C19.2033 15.5009 14.5414 20.4369 11.6659 26.4141C8.79031 32.3913 7.84321 39.1144 8.95557 45.6534C10.0679 52.1924 13.1848 58.2242 17.875 62.9144C22.5652 67.6046 28.5969 70.7214 35.1359 71.8337C41.6749 72.9461 48.398 71.999 54.3752 69.1235C60.3524 66.2479 65.2884 61.586 68.5003 55.7826C71.7122 49.9792 73.0414 43.3211 72.304 36.7293C72.2462 36.2072 72.2918 35.6788 72.4383 35.1743C72.5847 34.6698 72.8291 34.199 73.1574 33.789C73.8205 32.9608 74.7855 32.43 75.84 32.3133C76.8945 32.1966 77.9522 32.5036 78.7803 33.1667C79.1904 33.4951 79.5318 33.901 79.785 34.3613C80.0382 34.8215 80.1982 35.3272 80.256 35.8493C80.416 37.308 80.4973 38.788 80.5 40.2893C80.5 62.3813 62.592 80.2893 40.5 80.2893C18.408 80.2893 0.5 62.3813 0.5 40.2893C0.5 18.1973 18.408 0.289307 40.5 0.289307ZM40.372 23.7973C40.6356 24.8242 40.4808 25.9137 39.9415 26.8265C39.4022 27.7393 38.5226 28.4007 37.496 28.6653C34.6755 29.4042 32.2201 31.144 30.5882 33.5601C28.9562 35.9763 28.259 38.9037 28.6268 41.7961C28.9946 44.6885 30.4022 47.3483 32.5869 49.2791C34.7717 51.2099 37.5843 52.2799 40.5 52.2893C43.1612 52.2904 45.7473 51.4069 47.8515 49.7777C49.9557 48.1485 51.4587 45.866 52.124 43.2893C52.4075 42.2827 53.074 41.4272 53.9806 40.906C54.8872 40.3848 55.9619 40.2394 56.9744 40.5009C57.9869 40.7624 58.8568 41.41 59.3977 42.305C59.9385 43.2001 60.1073 44.2713 59.868 45.2893C58.6409 49.993 55.7434 54.0891 51.7166 56.8124C47.6899 59.5357 42.8094 60.6998 37.987 60.0873C33.1646 59.4748 28.7301 57.1277 25.512 53.4842C22.2939 49.8408 20.5123 45.1504 20.5 40.2893C20.4993 35.8549 21.9724 31.5459 24.6877 28.04C27.4029 24.5341 31.2064 22.0299 35.5 20.9213C36.0087 20.7902 36.5383 20.7606 37.0585 20.8341C37.5787 20.9077 38.0793 21.083 38.5317 21.3501C38.9842 21.6172 39.3795 21.9708 39.6953 22.3907C40.0111 22.8106 40.241 23.2885 40.372 23.7973ZM66.516 0.797307C67.2461 1.10002 67.8702 1.61226 68.3094 2.26934C68.7487 2.92643 68.9834 3.69893 68.984 4.48931V11.8093H76.3C77.091 11.8095 77.8642 12.0442 78.5218 12.4837C79.1795 12.9232 79.692 13.5479 79.9947 14.2787C80.2974 15.0095 80.3766 15.8136 80.2223 16.5894C80.0681 17.3652 79.6872 18.0779 79.128 18.6373L64.98 32.7693C64.23 33.5195 63.2128 33.9411 62.152 33.9413H52.5L45.188 41.2573C44.4374 42.0079 43.4195 42.4295 42.358 42.4295C41.2965 42.4295 40.2786 42.0079 39.528 41.2573C38.7774 40.5067 38.3558 39.4888 38.3558 38.4273C38.3558 37.3659 38.7774 36.3479 39.528 35.5973L46.844 28.2893V18.6333C46.8442 17.5725 47.2658 16.5553 48.016 15.8053L62.156 1.66131C62.7154 1.10158 63.4282 0.72034 64.2043 0.565832C64.9804 0.411324 65.7849 0.490487 66.516 0.793306M60.984 14.1413L54.844 20.2893V25.9453H60.5L66.644 19.8053H64.984C63.9231 19.8053 62.9057 19.3839 62.1556 18.6337C61.4054 17.8836 60.984 16.8662 60.984 15.8053V14.1413Z" fill="#9961D9"/>
</svg>
