<svg width="81" height="81" viewBox="0 0 81 81" fill="none" xmlns="http://www.w3.org/2000/svg">
<path d="M40.5 0.789307C32.5888 0.789307 24.8552 3.13527 18.2772 7.53052C11.6992 11.9258 6.57234 18.1729 3.54484 25.482C0.517331 32.791 -0.274802 40.8337 1.26861 48.5929C2.81202 56.3521 6.62164 63.4795 12.2157 69.0736C17.8098 74.6677 24.9372 78.4773 32.6964 80.0207C40.4556 81.5641 48.4983 80.772 55.8073 77.7445C63.1164 74.717 69.3635 69.5901 73.7588 63.0121C78.154 56.4341 80.5 48.7005 80.5 40.7893C80.4878 30.1844 76.2696 20.0173 68.7708 12.5185C61.272 5.01972 51.1049 0.801522 40.5 0.789307ZM74.3462 40.7893C74.3489 43.9107 73.9178 47.0173 73.0654 50.0201H58.2539C59.1977 43.9024 59.1977 37.6762 58.2539 31.5585H73.0654C73.9178 34.5613 74.3489 37.6679 74.3462 40.7893ZM30.5 56.1739H50.5C48.5298 62.6301 45.1093 68.5502 40.5 73.4816C35.8929 68.5486 32.4727 62.629 30.5 56.1739ZM29 50.0201C27.9433 43.9116 27.9433 37.667 29 31.5585H52.0308C53.0875 37.667 53.0875 43.9116 52.0308 50.0201H29ZM6.65386 40.7893C6.65114 37.6679 7.08218 34.5613 7.93463 31.5585H22.7462C21.8023 37.6762 21.8023 43.9024 22.7462 50.0201H7.93463C7.08218 47.0173 6.65114 43.9107 6.65386 40.7893ZM50.5 25.4047H30.5C32.4702 18.9485 35.8907 13.0284 40.5 8.097C45.1071 13.03 48.5273 18.9496 50.5 25.4047ZM70.6269 25.4047H56.9269C55.2 19.0698 52.2899 13.1189 48.35 7.86623C53.1104 9.0098 57.5673 11.1692 61.4151 14.1964C65.2628 17.2237 68.4105 21.0471 70.6423 25.4047H70.6269ZM32.65 7.86623C28.7102 13.1189 25.8 19.0698 24.0731 25.4047H10.3577C12.5895 21.0471 15.7372 17.2237 19.585 14.1964C23.4327 11.1692 27.8896 9.0098 32.65 7.86623ZM10.3577 56.1739H24.0731C25.8 62.5088 28.7102 68.4597 32.65 73.7124C27.8896 72.5688 23.4327 70.4094 19.585 67.3822C15.7372 64.3549 12.5895 60.5315 10.3577 56.1739ZM48.35 73.7124C52.2899 68.4597 55.2 62.5088 56.9269 56.1739H70.6423C68.4105 60.5315 65.2628 64.3549 61.4151 67.3822C57.5673 70.4094 53.1104 72.5688 48.35 73.7124Z" fill="#9961D9"/>
</svg>
