<svg width="32" height="41" viewBox="0 0 32 41" fill="none" xmlns="http://www.w3.org/2000/svg">
<path d="M4 4.46387H0V0.463867H32V4.46387H28V8.46387C28 11.6939 26.368 14.2939 24.312 16.4179C22.906 17.8699 21.196 19.2079 19.462 20.4639C21.196 21.7199 22.906 23.0579 24.312 24.5099C26.368 26.6339 28 29.2339 28 32.4639V36.4639H32V40.4639H0V36.4639H4V32.4639C4 29.2339 5.632 26.6339 7.688 24.5099C9.094 23.0579 10.804 21.7199 12.538 20.4639C10.804 19.2079 9.094 17.8699 7.688 16.4179C5.632 14.2939 4 11.6939 4 8.46387V4.46387ZM8 4.46387V8.46387C8 10.2339 8.868 11.8839 10.562 13.6359C12.016 15.1379 13.91 16.5439 16 18.0199C18.09 16.5439 19.984 15.1379 21.438 13.6359C23.132 11.8839 24 10.2339 24 8.46387V4.46387H8ZM16 22.9079C13.91 24.3839 12.016 25.7899 10.562 27.2919C8.868 29.0439 8 30.6939 8 32.4639V36.4639H24V32.4639C24 30.6939 23.132 29.0439 21.438 27.2919C19.984 25.7899 18.09 24.3839 16 22.9079Z" fill="#9961D9"/>
</svg>
